solid OpenSCAD_Model
  facet normal -1 0 0
    outer loop
      vertex 0 12 0
      vertex 0 7.23637 3.09828
      vertex 0 12 3.5
    endloop
  endfacet
  facet normal -1 0 0
    outer loop
      vertex 0 12 0
      vertex 0 6 2.2
      vertex 0 7.23637 3.09828
    endloop
  endfacet
  facet normal -1 -0 0
    outer loop
      vertex 0 6 2.2
      vertex 0 0 0
      vertex 0 4.76363 3.09828
    endloop
  endfacet
  facet normal -1 0 0
    outer loop
      vertex 0 0 0
      vertex 0 6 2.2
      vertex 0 12 0
    endloop
  endfacet
  facet normal -1 -0 0
    outer loop
      vertex 0 12 3.5
      vertex 0 7.23637 3.09828
      vertex 0 7.10585 3.5
    endloop
  endfacet
  facet normal -1 0 0
    outer loop
      vertex 0 0 3.5
      vertex 0 4.76363 3.09828
      vertex 0 0 0
    endloop
  endfacet
  facet normal -1 0 0
    outer loop
      vertex 0 4.76363 3.09828
      vertex 0 0 3.5
      vertex 0 4.89415 3.5
    endloop
  endfacet
  facet normal 0 0 1
    outer loop
      vertex 10.6936 4.62913 1
      vertex 5.11114 4.70365 1
      vertex 5.45 4 1
    endloop
  endfacet
  facet normal 0 0 1
    outer loop
      vertex 10.6936 7.37087 1
      vertex 4.90406 6.86634 1
      vertex 5.11114 4.70365 1
    endloop
  endfacet
  facet normal 0 0 1
    outer loop
      vertex 4.90406 6.86634 1
      vertex 4.90406 5.13366 1
      vertex 5.11114 4.70365 1
    endloop
  endfacet
  facet normal -0 0 1
    outer loop
      vertex 4.43875 6.76014 1
      vertex 4.90406 5.13366 1
      vertex 4.90406 6.86634 1
    endloop
  endfacet
  facet normal 0 0 1
    outer loop
      vertex 4.43875 6.76014 1
      vertex 4.43875 5.23986 1
      vertex 4.90406 5.13366 1
    endloop
  endfacet
  facet normal -0 0 1
    outer loop
      vertex 3.67734 6.58635 1
      vertex 4.43875 5.23986 1
      vertex 4.43875 6.76014 1
    endloop
  endfacet
  facet normal 0 0 1
    outer loop
      vertex 3.67734 6.58635 1
      vertex 3.67734 5.41365 1
      vertex 4.43875 5.23986 1
    endloop
  endfacet
  facet normal 0 0 1
    outer loop
      vertex 2.69359 7.37087 1
      vertex 3.67734 5.41365 1
      vertex 3.67734 6.58635 1
    endloop
  endfacet
  facet normal 0 0 1
    outer loop
      vertex 3.67734 5.41365 1
      vertex 2.69359 7.37087 1
      vertex 2.69359 4.62913 1
    endloop
  endfacet
  facet normal 0 0 1
    outer loop
      vertex 13.45 8 1
      vertex 13.1111 4.70365 1
      vertex 13.45 4 1
    endloop
  endfacet
  facet normal -0 0 1
    outer loop
      vertex 12.9041 6.86634 1
      vertex 13.1111 4.70365 1
      vertex 13.45 8 1
    endloop
  endfacet
  facet normal 0 0 1
    outer loop
      vertex 12.9041 6.86634 1
      vertex 12.9041 5.13366 1
      vertex 13.1111 4.70365 1
    endloop
  endfacet
  facet normal -0 0 1
    outer loop
      vertex 12.4388 6.76014 1
      vertex 12.9041 5.13366 1
      vertex 12.9041 6.86634 1
    endloop
  endfacet
  facet normal 0 0 1
    outer loop
      vertex 12.4388 6.76014 1
      vertex 12.4388 5.23986 1
      vertex 12.9041 5.13366 1
    endloop
  endfacet
  facet normal -0 0 1
    outer loop
      vertex 11.6773 6.58635 1
      vertex 12.4388 5.23986 1
      vertex 12.4388 6.76014 1
    endloop
  endfacet
  facet normal 0 0 1
    outer loop
      vertex 11.6773 6.58635 1
      vertex 11.6773 5.41365 1
      vertex 12.4388 5.23986 1
    endloop
  endfacet
  facet normal 0 0 1
    outer loop
      vertex 10.6936 7.37087 1
      vertex 11.6773 5.41365 1
      vertex 11.6773 6.58635 1
    endloop
  endfacet
  facet normal 0 0 1
    outer loop
      vertex 11.6773 5.41365 1
      vertex 10.6936 7.37087 1
      vertex 10.6936 4.62913 1
    endloop
  endfacet
  facet normal 0 0 1
    outer loop
      vertex 15 11 1
      vertex 13.45 8 1
      vertex 15 1 1
    endloop
  endfacet
  facet normal 0 0 1
    outer loop
      vertex 15 11 1
      vertex 13.1111 8.70365 1
      vertex 13.45 8 1
    endloop
  endfacet
  facet normal 0 0 1
    outer loop
      vertex 15 11 1
      vertex 12.9041 9.13366 1
      vertex 13.1111 8.70365 1
    endloop
  endfacet
  facet normal 0 0 1
    outer loop
      vertex 15 11 1
      vertex 12.4388 9.23986 1
      vertex 12.9041 9.13366 1
    endloop
  endfacet
  facet normal 0 0 1
    outer loop
      vertex 15 11 1
      vertex 11.6773 9.41365 1
      vertex 12.4388 9.23986 1
    endloop
  endfacet
  facet normal -0 0 1
    outer loop
      vertex 5.45 8 1
      vertex 10.6936 7.37087 1
      vertex 10.6936 8.62913 1
    endloop
  endfacet
  facet normal 0 0 1
    outer loop
      vertex 4.90406 6.86634 1
      vertex 10.6936 7.37087 1
      vertex 5.45 8 1
    endloop
  endfacet
  facet normal 0 0 1
    outer loop
      vertex 10.6936 7.37087 1
      vertex 5.11114 4.70365 1
      vertex 10.6936 4.62913 1
    endloop
  endfacet
  facet normal -0 0 1
    outer loop
      vertex 4.90406 9.13366 1
      vertex 10.6936 8.62913 1
      vertex 11.6773 9.41365 1
    endloop
  endfacet
  facet normal -0 0 1
    outer loop
      vertex 1 11 1
      vertex 11.6773 9.41365 1
      vertex 15 11 1
    endloop
  endfacet
  facet normal 0 0 1
    outer loop
      vertex 10.6936 8.62913 1
      vertex 5.11114 8.70365 1
      vertex 5.45 8 1
    endloop
  endfacet
  facet normal 0 0 1
    outer loop
      vertex 10.6936 8.62913 1
      vertex 4.90406 9.13366 1
      vertex 5.11114 8.70365 1
    endloop
  endfacet
  facet normal 0 0 1
    outer loop
      vertex 11.6773 9.41365 1
      vertex 1 11 1
      vertex 4.90406 9.13366 1
    endloop
  endfacet
  facet normal 0 0 1
    outer loop
      vertex 4.90406 9.13366 1
      vertex 1 11 1
      vertex 4.43875 9.23986 1
    endloop
  endfacet
  facet normal 0 0 1
    outer loop
      vertex 1 11 1
      vertex 2.69359 7.37087 1
      vertex 2.69359 8.62913 1
    endloop
  endfacet
  facet normal 0 0 1
    outer loop
      vertex 2.69359 7.37087 1
      vertex 1 11 1
      vertex 2.69359 4.62913 1
    endloop
  endfacet
  facet normal 0 0 1
    outer loop
      vertex 1 1 1
      vertex 2.69359 4.62913 1
      vertex 1 11 1
    endloop
  endfacet
  facet normal 0 0 1
    outer loop
      vertex 3.67734 9.41365 1
      vertex 1 11 1
      vertex 2.69359 8.62913 1
    endloop
  endfacet
  facet normal 0 0 1
    outer loop
      vertex 4.43875 9.23986 1
      vertex 1 11 1
      vertex 3.67734 9.41365 1
    endloop
  endfacet
  facet normal -0 0 1
    outer loop
      vertex 13.45 4 1
      vertex 15 1 1
      vertex 13.45 8 1
    endloop
  endfacet
  facet normal -0 0 1
    outer loop
      vertex 12.9041 2.86634 1
      vertex 15 1 1
      vertex 13.45 4 1
    endloop
  endfacet
  facet normal -0 0 1
    outer loop
      vertex 12.4388 2.76014 1
      vertex 15 1 1
      vertex 12.9041 2.86634 1
    endloop
  endfacet
  facet normal -0 0 1
    outer loop
      vertex 11.6773 2.58635 1
      vertex 15 1 1
      vertex 12.4388 2.76014 1
    endloop
  endfacet
  facet normal 0 0 1
    outer loop
      vertex 10.6936 4.62913 1
      vertex 5.45 4 1
      vertex 10.6936 3.37087 1
    endloop
  endfacet
  facet normal 0 0 1
    outer loop
      vertex 4.90406 2.86634 1
      vertex 10.6936 3.37087 1
      vertex 5.45 4 1
    endloop
  endfacet
  facet normal 0 0 1
    outer loop
      vertex 10.6936 3.37087 1
      vertex 4.90406 2.86634 1
      vertex 11.6773 2.58635 1
    endloop
  endfacet
  facet normal 0 0 1
    outer loop
      vertex 1 1 1
      vertex 11.6773 2.58635 1
      vertex 4.90406 2.86634 1
    endloop
  endfacet
  facet normal 0 0 1
    outer loop
      vertex 1 1 1
      vertex 4.90406 2.86634 1
      vertex 4.43875 2.76014 1
    endloop
  endfacet
  facet normal 0 0 1
    outer loop
      vertex 1 1 1
      vertex 4.43875 2.76014 1
      vertex 3.67734 2.58635 1
    endloop
  endfacet
  facet normal 0 0 1
    outer loop
      vertex 11.6773 2.58635 1
      vertex 1 1 1
      vertex 15 1 1
    endloop
  endfacet
  facet normal 0 0 1
    outer loop
      vertex 2.69359 3.37087 1
      vertex 1 1 1
      vertex 3.67734 2.58635 1
    endloop
  endfacet
  facet normal 0 0 1
    outer loop
      vertex 2.69359 4.62913 1
      vertex 1 1 1
      vertex 2.69359 3.37087 1
    endloop
  endfacet
  facet normal 1 0 0
    outer loop
      vertex 16 4.89415 3.5
      vertex 16 0 3.5
      vertex 16 4.76363 3.09828
    endloop
  endfacet
  facet normal 1 0 0
    outer loop
      vertex 16 12 3.5
      vertex 16 7.23637 3.09828
      vertex 16 12 0
    endloop
  endfacet
  facet normal 1 0 -0
    outer loop
      vertex 16 7.23637 3.09828
      vertex 16 12 3.5
      vertex 16 7.10585 3.5
    endloop
  endfacet
  facet normal 1 -0 0
    outer loop
      vertex 16 6 2.2
      vertex 16 12 0
      vertex 16 7.23637 3.09828
    endloop
  endfacet
  facet normal 1 0 0
    outer loop
      vertex 16 0 0
      vertex 16 4.76363 3.09828
      vertex 16 0 3.5
    endloop
  endfacet
  facet normal 1 0 0
    outer loop
      vertex 16 4.76363 3.09828
      vertex 16 0 0
      vertex 16 6 2.2
    endloop
  endfacet
  facet normal 1 0 0
    outer loop
      vertex 16 6 2.2
      vertex 16 0 0
      vertex 16 12 0
    endloop
  endfacet
  facet normal 0 0 -1
    outer loop
      vertex 4.93523 6.82725 0
      vertex 10.6485 7.34917 0
      vertex 5.12349 4.78183 0
    endloop
  endfacet
  facet normal 0 0 -1
    outer loop
      vertex 4.93523 6.82725 0
      vertex 5.12349 4.78183 0
      vertex 4.93523 5.17275 0
    endloop
  endfacet
  facet normal -0 0 -1
    outer loop
      vertex 10.6485 7.34917 0
      vertex 4.93523 6.82725 0
      vertex 5.5 8 0
    endloop
  endfacet
  facet normal 0 0 -1
    outer loop
      vertex 4.51223 5.2693 0
      vertex 4.93523 6.82725 0
      vertex 4.93523 5.17275 0
    endloop
  endfacet
  facet normal 0 0 -1
    outer loop
      vertex 4.51223 5.2693 0
      vertex 4.51223 6.7307 0
      vertex 4.93523 6.82725 0
    endloop
  endfacet
  facet normal 0 0 -1
    outer loop
      vertex 3.66622 5.46239 0
      vertex 4.51223 6.7307 0
      vertex 4.51223 5.2693 0
    endloop
  endfacet
  facet normal 0 0 -1
    outer loop
      vertex 3.66622 5.46239 0
      vertex 3.66622 6.53761 0
      vertex 4.51223 6.7307 0
    endloop
  endfacet
  facet normal 0 0 -1
    outer loop
      vertex 2.64855 4.65083 0
      vertex 3.66622 6.53761 0
      vertex 3.66622 5.46239 0
    endloop
  endfacet
  facet normal -0 0 -1
    outer loop
      vertex 3.66622 6.53761 0
      vertex 2.64855 4.65083 0
      vertex 2.64855 7.34917 0
    endloop
  endfacet
  facet normal 0 0 -1
    outer loop
      vertex 13.1235 4.78183 0
      vertex 13.5 8 0
      vertex 13.5 4 0
    endloop
  endfacet
  facet normal 0 0 -1
    outer loop
      vertex 12.9352 6.82725 0
      vertex 13.1235 4.78183 0
      vertex 12.9352 5.17275 0
    endloop
  endfacet
  facet normal 0 0 -1
    outer loop
      vertex 13.1235 4.78183 0
      vertex 12.9352 6.82725 0
      vertex 13.5 8 0
    endloop
  endfacet
  facet normal 0 0 -1
    outer loop
      vertex 12.5122 5.2693 0
      vertex 12.9352 6.82725 0
      vertex 12.9352 5.17275 0
    endloop
  endfacet
  facet normal 0 0 -1
    outer loop
      vertex 12.5122 5.2693 0
      vertex 12.5122 6.7307 0
      vertex 12.9352 6.82725 0
    endloop
  endfacet
  facet normal 0 0 -1
    outer loop
      vertex 11.6662 5.46239 0
      vertex 12.5122 6.7307 0
      vertex 12.5122 5.2693 0
    endloop
  endfacet
  facet normal 0 0 -1
    outer loop
      vertex 11.6662 5.46239 0
      vertex 11.6662 6.53761 0
      vertex 12.5122 6.7307 0
    endloop
  endfacet
  facet normal 0 0 -1
    outer loop
      vertex 10.6485 4.65083 0
      vertex 11.6662 6.53761 0
      vertex 11.6662 5.46239 0
    endloop
  endfacet
  facet normal -0 0 -1
    outer loop
      vertex 11.6662 6.53761 0
      vertex 10.6485 4.65083 0
      vertex 10.6485 7.34917 0
    endloop
  endfacet
  facet normal 0 0 -1
    outer loop
      vertex 16 0 0
      vertex 13.5 4 0
      vertex 16 12 0
    endloop
  endfacet
  facet normal 0 0 -1
    outer loop
      vertex 16 0 0
      vertex 12.9352 2.82725 0
      vertex 13.5 4 0
    endloop
  endfacet
  facet normal 0 0 -1
    outer loop
      vertex 16 0 0
      vertex 12.5122 2.7307 0
      vertex 12.9352 2.82725 0
    endloop
  endfacet
  facet normal 0 0 -1
    outer loop
      vertex 16 0 0
      vertex 11.6662 2.53761 0
      vertex 12.5122 2.7307 0
    endloop
  endfacet
  facet normal 0 0 -1
    outer loop
      vertex 5.5 4 0
      vertex 10.6485 4.65083 0
      vertex 10.6485 3.34917 0
    endloop
  endfacet
  facet normal 0 0 -1
    outer loop
      vertex 5.12349 4.78183 0
      vertex 10.6485 4.65083 0
      vertex 5.5 4 0
    endloop
  endfacet
  facet normal 0 0 -1
    outer loop
      vertex 10.6485 4.65083 0
      vertex 5.12349 4.78183 0
      vertex 10.6485 7.34917 0
    endloop
  endfacet
  facet normal 0 0 -1
    outer loop
      vertex 4.93523 2.82725 0
      vertex 10.6485 3.34917 0
      vertex 11.6662 2.53761 0
    endloop
  endfacet
  facet normal 0 0 -1
    outer loop
      vertex 0 0 0
      vertex 11.6662 2.53761 0
      vertex 16 0 0
    endloop
  endfacet
  facet normal -0 0 -1
    outer loop
      vertex 10.6485 3.34917 0
      vertex 4.93523 2.82725 0
      vertex 5.5 4 0
    endloop
  endfacet
  facet normal -0 0 -1
    outer loop
      vertex 11.6662 2.53761 0
      vertex 0 0 0
      vertex 4.93523 2.82725 0
    endloop
  endfacet
  facet normal 0 0 -1
    outer loop
      vertex 4.93523 2.82725 0
      vertex 0 0 0
      vertex 4.51223 2.7307 0
    endloop
  endfacet
  facet normal 0 0 -1
    outer loop
      vertex 0 0 0
      vertex 2.64855 4.65083 0
      vertex 2.64855 3.34917 0
    endloop
  endfacet
  facet normal -0 0 -1
    outer loop
      vertex 2.64855 4.65083 0
      vertex 0 0 0
      vertex 2.64855 7.34917 0
    endloop
  endfacet
  facet normal 0 0 -1
    outer loop
      vertex 0 12 0
      vertex 2.64855 7.34917 0
      vertex 0 0 0
    endloop
  endfacet
  facet normal -0 0 -1
    outer loop
      vertex 3.66622 2.53761 0
      vertex 0 0 0
      vertex 2.64855 3.34917 0
    endloop
  endfacet
  facet normal 0 0 -1
    outer loop
      vertex 4.51223 2.7307 0
      vertex 0 0 0
      vertex 3.66622 2.53761 0
    endloop
  endfacet
  facet normal 0 0 -1
    outer loop
      vertex 13.5 8 0
      vertex 16 12 0
      vertex 13.5 4 0
    endloop
  endfacet
  facet normal 0 0 -1
    outer loop
      vertex 13.1235 8.78183 0
      vertex 16 12 0
      vertex 13.5 8 0
    endloop
  endfacet
  facet normal 0 0 -1
    outer loop
      vertex 12.9352 9.17275 0
      vertex 16 12 0
      vertex 13.1235 8.78183 0
    endloop
  endfacet
  facet normal 0 0 -1
    outer loop
      vertex 12.5122 9.26929 0
      vertex 16 12 0
      vertex 12.9352 9.17275 0
    endloop
  endfacet
  facet normal 0 0 -1
    outer loop
      vertex 11.6662 9.46239 0
      vertex 16 12 0
      vertex 12.5122 9.26929 0
    endloop
  endfacet
  facet normal 0 0 -1
    outer loop
      vertex 10.6485 7.34917 0
      vertex 5.5 8 0
      vertex 10.6485 8.65083 0
    endloop
  endfacet
  facet normal 0 0 -1
    outer loop
      vertex 5.12349 8.78183 0
      vertex 10.6485 8.65083 0
      vertex 5.5 8 0
    endloop
  endfacet
  facet normal 0 0 -1
    outer loop
      vertex 4.93523 9.17275 0
      vertex 10.6485 8.65083 0
      vertex 5.12349 8.78183 0
    endloop
  endfacet
  facet normal 0 0 -1
    outer loop
      vertex 10.6485 8.65083 0
      vertex 4.93523 9.17275 0
      vertex 11.6662 9.46239 0
    endloop
  endfacet
  facet normal 0 0 -1
    outer loop
      vertex 0 12 0
      vertex 11.6662 9.46239 0
      vertex 4.93523 9.17275 0
    endloop
  endfacet
  facet normal 0 0 -1
    outer loop
      vertex 0 12 0
      vertex 4.93523 9.17275 0
      vertex 4.51223 9.26929 0
    endloop
  endfacet
  facet normal 0 0 -1
    outer loop
      vertex 0 12 0
      vertex 4.51223 9.26929 0
      vertex 3.66622 9.46239 0
    endloop
  endfacet
  facet normal 0 0 -1
    outer loop
      vertex 11.6662 9.46239 0
      vertex 0 12 0
      vertex 16 12 0
    endloop
  endfacet
  facet normal 0 0 -1
    outer loop
      vertex 2.64855 8.65083 0
      vertex 0 12 0
      vertex 3.66622 9.46239 0
    endloop
  endfacet
  facet normal 0 0 -1
    outer loop
      vertex 2.64855 7.34917 0
      vertex 0 12 0
      vertex 2.64855 8.65083 0
    endloop
  endfacet
  facet normal 0 -1 0
    outer loop
      vertex 0 0 0
      vertex 16 0 3.5
      vertex 0 0 3.5
    endloop
  endfacet
  facet normal 0 -1 -0
    outer loop
      vertex 16 0 3.5
      vertex 0 0 0
      vertex 16 0 0
    endloop
  endfacet
  facet normal 0 1 -0
    outer loop
      vertex 16 12 0
      vertex 0 12 3.5
      vertex 16 12 3.5
    endloop
  endfacet
  facet normal 0 1 0
    outer loop
      vertex 0 12 3.5
      vertex 16 12 0
      vertex 0 12 0
    endloop
  endfacet
  facet normal -0.900056 -0.433445 -0.045003
    outer loop
      vertex 5.5 4 0
      vertex 5.11114 4.70365 1
      vertex 5.12349 4.78183 0
    endloop
  endfacet
  facet normal -0.900056 -0.433445 -0.045003
    outer loop
      vertex 5.11114 4.70365 1
      vertex 5.5 4 0
      vertex 5.45 4 1
    endloop
  endfacet
  facet normal 0.622858 0.781039 -0.0450028
    outer loop
      vertex 3.66622 2.53761 0
      vertex 2.69359 3.37087 1
      vertex 3.67734 2.58635 1
    endloop
  endfacet
  facet normal 0.622858 0.781039 -0.0450028
    outer loop
      vertex 2.69359 3.37087 1
      vertex 3.66622 2.53761 0
      vertex 2.64855 3.34917 0
    endloop
  endfacet
  facet normal -0.222297 -0.97394 -0.0450027
    outer loop
      vertex 4.51223 5.2693 0
      vertex 4.90406 5.13366 1
      vertex 4.43875 5.23986 1
    endloop
  endfacet
  facet normal -0.222296 -0.97394 -0.0450029
    outer loop
      vertex 4.90406 5.13366 1
      vertex 4.51223 5.2693 0
      vertex 4.93523 5.17275 0
    endloop
  endfacet
  facet normal -0.222295 -0.97394 -0.045003
    outer loop
      vertex 3.66622 5.46239 0
      vertex 4.43875 5.23986 1
      vertex 3.67734 5.41365 1
    endloop
  endfacet
  facet normal -0.222296 -0.97394 -0.0450026
    outer loop
      vertex 4.43875 5.23986 1
      vertex 3.66622 5.46239 0
      vertex 4.51223 5.2693 0
    endloop
  endfacet
  facet normal -0.900056 -0.433445 -0.045003
    outer loop
      vertex 5.12349 4.78183 0
      vertex 4.90406 5.13366 1
      vertex 4.93523 5.17275 0
    endloop
  endfacet
  facet normal -0.900056 -0.433445 -0.045003
    outer loop
      vertex 4.90406 5.13366 1
      vertex 5.12349 4.78183 0
      vertex 5.11114 4.70365 1
    endloop
  endfacet
  facet normal -0.222296 0.97394 -0.0450029
    outer loop
      vertex 3.66622 2.53761 0
      vertex 4.43875 2.76014 1
      vertex 4.51223 2.7307 0
    endloop
  endfacet
  facet normal -0.222296 0.97394 -0.0450027
    outer loop
      vertex 4.43875 2.76014 1
      vertex 3.66622 2.53761 0
      vertex 3.67734 2.58635 1
    endloop
  endfacet
  facet normal 0.622858 -0.781039 -0.0450028
    outer loop
      vertex 3.66622 5.46239 0
      vertex 2.69359 4.62913 1
      vertex 2.64855 4.65083 0
    endloop
  endfacet
  facet normal 0.622858 -0.781039 -0.0450029
    outer loop
      vertex 2.69359 4.62913 1
      vertex 3.66622 5.46239 0
      vertex 3.67734 5.41365 1
    endloop
  endfacet
  facet normal 0.998987 0 -0.0450028
    outer loop
      vertex 2.69359 3.37087 1
      vertex 2.64855 4.65083 0
      vertex 2.69359 4.62913 1
    endloop
  endfacet
  facet normal 0.998987 0 -0.0450028
    outer loop
      vertex 2.64855 4.65083 0
      vertex 2.69359 3.37087 1
      vertex 2.64855 3.34917 0
    endloop
  endfacet
  facet normal -0.222296 0.97394 -0.0450029
    outer loop
      vertex 4.51223 2.7307 0
      vertex 4.90406 2.86634 1
      vertex 4.93523 2.82725 0
    endloop
  endfacet
  facet normal -0.222296 0.97394 -0.0450029
    outer loop
      vertex 4.90406 2.86634 1
      vertex 4.51223 2.7307 0
      vertex 4.43875 2.76014 1
    endloop
  endfacet
  facet normal -0.900056 0.433444 -0.045003
    outer loop
      vertex 5.5 4 0
      vertex 4.90406 2.86634 1
      vertex 5.45 4 1
    endloop
  endfacet
  facet normal -0.900056 0.433444 -0.045003
    outer loop
      vertex 4.90406 2.86634 1
      vertex 5.5 4 0
      vertex 4.93523 2.82725 0
    endloop
  endfacet
  facet normal -0.900056 -0.433445 -0.045003
    outer loop
      vertex 13.5 4 0
      vertex 13.1111 4.70365 1
      vertex 13.1235 4.78183 0
    endloop
  endfacet
  facet normal -0.900056 -0.433445 -0.045003
    outer loop
      vertex 13.1111 4.70365 1
      vertex 13.5 4 0
      vertex 13.45 4 1
    endloop
  endfacet
  facet normal 0.622859 0.781039 -0.0450025
    outer loop
      vertex 11.6662 2.53761 0
      vertex 10.6936 3.37087 1
      vertex 11.6773 2.58635 1
    endloop
  endfacet
  facet normal 0.622858 0.781039 -0.045003
    outer loop
      vertex 10.6936 3.37087 1
      vertex 11.6662 2.53761 0
      vertex 10.6485 3.34917 0
    endloop
  endfacet
  facet normal -0.222296 -0.97394 -0.0450027
    outer loop
      vertex 12.5122 5.2693 0
      vertex 12.9041 5.13366 1
      vertex 12.4388 5.23986 1
    endloop
  endfacet
  facet normal -0.222296 -0.97394 -0.0450029
    outer loop
      vertex 12.9041 5.13366 1
      vertex 12.5122 5.2693 0
      vertex 12.9352 5.17275 0
    endloop
  endfacet
  facet normal -0.222295 -0.97394 -0.0450031
    outer loop
      vertex 11.6662 5.46239 0
      vertex 12.4388 5.23986 1
      vertex 11.6773 5.41365 1
    endloop
  endfacet
  facet normal -0.222296 -0.97394 -0.0450026
    outer loop
      vertex 12.4388 5.23986 1
      vertex 11.6662 5.46239 0
      vertex 12.5122 5.2693 0
    endloop
  endfacet
  facet normal -0.900056 -0.433445 -0.045003
    outer loop
      vertex 13.1235 4.78183 0
      vertex 12.9041 5.13366 1
      vertex 12.9352 5.17275 0
    endloop
  endfacet
  facet normal -0.900056 -0.433445 -0.045003
    outer loop
      vertex 12.9041 5.13366 1
      vertex 13.1235 4.78183 0
      vertex 13.1111 4.70365 1
    endloop
  endfacet
  facet normal -0.222296 0.97394 -0.0450029
    outer loop
      vertex 11.6662 2.53761 0
      vertex 12.4388 2.76014 1
      vertex 12.5122 2.7307 0
    endloop
  endfacet
  facet normal -0.222296 0.97394 -0.0450029
    outer loop
      vertex 12.4388 2.76014 1
      vertex 11.6662 2.53761 0
      vertex 11.6773 2.58635 1
    endloop
  endfacet
  facet normal 0.622858 -0.781039 -0.045003
    outer loop
      vertex 11.6662 5.46239 0
      vertex 10.6936 4.62913 1
      vertex 10.6485 4.65083 0
    endloop
  endfacet
  facet normal 0.622858 -0.781039 -0.0450026
    outer loop
      vertex 10.6936 4.62913 1
      vertex 11.6662 5.46239 0
      vertex 11.6773 5.41365 1
    endloop
  endfacet
  facet normal 0.998987 0 -0.0450031
    outer loop
      vertex 10.6936 3.37087 1
      vertex 10.6485 4.65083 0
      vertex 10.6936 4.62913 1
    endloop
  endfacet
  facet normal 0.998987 0 -0.0450031
    outer loop
      vertex 10.6485 4.65083 0
      vertex 10.6936 3.37087 1
      vertex 10.6485 3.34917 0
    endloop
  endfacet
  facet normal -0.222296 0.97394 -0.0450029
    outer loop
      vertex 12.5122 2.7307 0
      vertex 12.9041 2.86634 1
      vertex 12.9352 2.82725 0
    endloop
  endfacet
  facet normal -0.222296 0.97394 -0.0450029
    outer loop
      vertex 12.9041 2.86634 1
      vertex 12.5122 2.7307 0
      vertex 12.4388 2.76014 1
    endloop
  endfacet
  facet normal -0.900056 0.433444 -0.045003
    outer loop
      vertex 13.5 4 0
      vertex 12.9041 2.86634 1
      vertex 13.45 4 1
    endloop
  endfacet
  facet normal -0.900056 0.433444 -0.045003
    outer loop
      vertex 12.9041 2.86634 1
      vertex 13.5 4 0
      vertex 12.9352 2.82725 0
    endloop
  endfacet
  facet normal -0.900056 -0.433444 -0.045003
    outer loop
      vertex 5.5 8 0
      vertex 5.11114 8.70365 1
      vertex 5.12349 8.78183 0
    endloop
  endfacet
  facet normal -0.900056 -0.433444 -0.045003
    outer loop
      vertex 5.11114 8.70365 1
      vertex 5.5 8 0
      vertex 5.45 8 1
    endloop
  endfacet
  facet normal 0.622858 0.781039 -0.0450029
    outer loop
      vertex 3.66622 6.53761 0
      vertex 2.69359 7.37087 1
      vertex 3.67734 6.58635 1
    endloop
  endfacet
  facet normal 0.622858 0.781039 -0.0450028
    outer loop
      vertex 2.69359 7.37087 1
      vertex 3.66622 6.53761 0
      vertex 2.64855 7.34917 0
    endloop
  endfacet
  facet normal -0.222296 -0.97394 -0.0450022
    outer loop
      vertex 4.51223 9.26929 0
      vertex 4.90406 9.13366 1
      vertex 4.43875 9.23986 1
    endloop
  endfacet
  facet normal -0.222295 -0.97394 -0.0450024
    outer loop
      vertex 4.90406 9.13366 1
      vertex 4.51223 9.26929 0
      vertex 4.93523 9.17275 0
    endloop
  endfacet
  facet normal -0.222296 -0.97394 -0.0450025
    outer loop
      vertex 3.66622 9.46239 0
      vertex 4.43875 9.23986 1
      vertex 3.67734 9.41365 1
    endloop
  endfacet
  facet normal -0.222296 -0.97394 -0.0450022
    outer loop
      vertex 4.43875 9.23986 1
      vertex 3.66622 9.46239 0
      vertex 4.51223 9.26929 0
    endloop
  endfacet
  facet normal -0.900056 -0.433445 -0.0450028
    outer loop
      vertex 5.12349 8.78183 0
      vertex 4.90406 9.13366 1
      vertex 4.93523 9.17275 0
    endloop
  endfacet
  facet normal -0.900056 -0.433445 -0.045003
    outer loop
      vertex 4.90406 9.13366 1
      vertex 5.12349 8.78183 0
      vertex 5.11114 8.70365 1
    endloop
  endfacet
  facet normal -0.222296 0.97394 -0.0450026
    outer loop
      vertex 3.66622 6.53761 0
      vertex 4.43875 6.76014 1
      vertex 4.51223 6.7307 0
    endloop
  endfacet
  facet normal -0.222295 0.97394 -0.045003
    outer loop
      vertex 4.43875 6.76014 1
      vertex 3.66622 6.53761 0
      vertex 3.67734 6.58635 1
    endloop
  endfacet
  facet normal 0.622858 -0.781039 -0.0450028
    outer loop
      vertex 3.66622 9.46239 0
      vertex 2.69359 8.62913 1
      vertex 2.64855 8.65083 0
    endloop
  endfacet
  facet normal 0.622858 -0.781039 -0.0450026
    outer loop
      vertex 2.69359 8.62913 1
      vertex 3.66622 9.46239 0
      vertex 3.67734 9.41365 1
    endloop
  endfacet
  facet normal 0.998987 0 -0.0450028
    outer loop
      vertex 2.69359 7.37087 1
      vertex 2.64855 8.65083 0
      vertex 2.69359 8.62913 1
    endloop
  endfacet
  facet normal 0.998987 0 -0.0450028
    outer loop
      vertex 2.64855 8.65083 0
      vertex 2.69359 7.37087 1
      vertex 2.64855 7.34917 0
    endloop
  endfacet
  facet normal -0.222296 0.97394 -0.0450029
    outer loop
      vertex 4.51223 6.7307 0
      vertex 4.90406 6.86634 1
      vertex 4.93523 6.82725 0
    endloop
  endfacet
  facet normal -0.222297 0.97394 -0.0450027
    outer loop
      vertex 4.90406 6.86634 1
      vertex 4.51223 6.7307 0
      vertex 4.43875 6.76014 1
    endloop
  endfacet
  facet normal -0.900056 0.433444 -0.045003
    outer loop
      vertex 5.5 8 0
      vertex 4.90406 6.86634 1
      vertex 5.45 8 1
    endloop
  endfacet
  facet normal -0.900056 0.433444 -0.045003
    outer loop
      vertex 4.90406 6.86634 1
      vertex 5.5 8 0
      vertex 4.93523 6.82725 0
    endloop
  endfacet
  facet normal -0.900056 -0.433444 -0.045003
    outer loop
      vertex 13.5 8 0
      vertex 13.1111 8.70365 1
      vertex 13.1235 8.78183 0
    endloop
  endfacet
  facet normal -0.900056 -0.433444 -0.045003
    outer loop
      vertex 13.1111 8.70365 1
      vertex 13.5 8 0
      vertex 13.45 8 1
    endloop
  endfacet
  facet normal 0.622858 0.781039 -0.0450026
    outer loop
      vertex 11.6662 6.53761 0
      vertex 10.6936 7.37087 1
      vertex 11.6773 6.58635 1
    endloop
  endfacet
  facet normal 0.622858 0.781039 -0.045003
    outer loop
      vertex 10.6936 7.37087 1
      vertex 11.6662 6.53761 0
      vertex 10.6485 7.34917 0
    endloop
  endfacet
  facet normal -0.222295 -0.97394 -0.0450021
    outer loop
      vertex 12.5122 9.26929 0
      vertex 12.9041 9.13366 1
      vertex 12.4388 9.23986 1
    endloop
  endfacet
  facet normal -0.222295 -0.97394 -0.0450024
    outer loop
      vertex 12.9041 9.13366 1
      vertex 12.5122 9.26929 0
      vertex 12.9352 9.17275 0
    endloop
  endfacet
  facet normal -0.222296 -0.97394 -0.0450026
    outer loop
      vertex 11.6662 9.46239 0
      vertex 12.4388 9.23986 1
      vertex 11.6773 9.41365 1
    endloop
  endfacet
  facet normal -0.222296 -0.97394 -0.0450022
    outer loop
      vertex 12.4388 9.23986 1
      vertex 11.6662 9.46239 0
      vertex 12.5122 9.26929 0
    endloop
  endfacet
  facet normal -0.900056 -0.433445 -0.0450028
    outer loop
      vertex 13.1235 8.78183 0
      vertex 12.9041 9.13366 1
      vertex 12.9352 9.17275 0
    endloop
  endfacet
  facet normal -0.900056 -0.433445 -0.045003
    outer loop
      vertex 12.9041 9.13366 1
      vertex 13.1235 8.78183 0
      vertex 13.1111 8.70365 1
    endloop
  endfacet
  facet normal -0.222296 0.97394 -0.0450026
    outer loop
      vertex 11.6662 6.53761 0
      vertex 12.4388 6.76014 1
      vertex 12.5122 6.7307 0
    endloop
  endfacet
  facet normal -0.222295 0.97394 -0.0450031
    outer loop
      vertex 12.4388 6.76014 1
      vertex 11.6662 6.53761 0
      vertex 11.6773 6.58635 1
    endloop
  endfacet
  facet normal 0.622858 -0.781039 -0.045003
    outer loop
      vertex 11.6662 9.46239 0
      vertex 10.6936 8.62913 1
      vertex 10.6485 8.65083 0
    endloop
  endfacet
  facet normal 0.622859 -0.781039 -0.0450023
    outer loop
      vertex 10.6936 8.62913 1
      vertex 11.6662 9.46239 0
      vertex 11.6773 9.41365 1
    endloop
  endfacet
  facet normal 0.998987 0 -0.0450031
    outer loop
      vertex 10.6936 7.37087 1
      vertex 10.6485 8.65083 0
      vertex 10.6936 8.62913 1
    endloop
  endfacet
  facet normal 0.998987 0 -0.0450031
    outer loop
      vertex 10.6485 8.65083 0
      vertex 10.6936 7.37087 1
      vertex 10.6485 7.34917 0
    endloop
  endfacet
  facet normal -0.222296 0.97394 -0.0450029
    outer loop
      vertex 12.5122 6.7307 0
      vertex 12.9041 6.86634 1
      vertex 12.9352 6.82725 0
    endloop
  endfacet
  facet normal -0.222296 0.97394 -0.0450027
    outer loop
      vertex 12.9041 6.86634 1
      vertex 12.5122 6.7307 0
      vertex 12.4388 6.76014 1
    endloop
  endfacet
  facet normal -0.900056 0.433444 -0.045003
    outer loop
      vertex 13.5 8 0
      vertex 12.9041 6.86634 1
      vertex 13.45 8 1
    endloop
  endfacet
  facet normal -0.900056 0.433444 -0.045003
    outer loop
      vertex 12.9041 6.86634 1
      vertex 13.5 8 0
      vertex 12.9352 6.82725 0
    endloop
  endfacet
  facet normal 0 0 1
    outer loop
      vertex 1 4.89415 3.5
      vertex 0 4.89415 3.5
      vertex 1 1 3.5
    endloop
  endfacet
  facet normal 0 0 1
    outer loop
      vertex 15 1 3.5
      vertex 16 4.89415 3.5
      vertex 15 4.89415 3.5
    endloop
  endfacet
  facet normal 0 0 1
    outer loop
      vertex 16 4.89415 3.5
      vertex 15 1 3.5
      vertex 16 0 3.5
    endloop
  endfacet
  facet normal -0 0 1
    outer loop
      vertex 1 1 3.5
      vertex 16 0 3.5
      vertex 15 1 3.5
    endloop
  endfacet
  facet normal 0 0 1
    outer loop
      vertex 1 1 3.5
      vertex 0 0 3.5
      vertex 16 0 3.5
    endloop
  endfacet
  facet normal 0 0 1
    outer loop
      vertex 0 0 3.5
      vertex 1 1 3.5
      vertex 0 4.89415 3.5
    endloop
  endfacet
  facet normal 0 0 1
    outer loop
      vertex 16 12 3.5
      vertex 15 11 3.5
      vertex 16 7.10585 3.5
    endloop
  endfacet
  facet normal 0 0 1
    outer loop
      vertex 16 12 3.5
      vertex 1 11 3.5
      vertex 15 11 3.5
    endloop
  endfacet
  facet normal -0 0 1
    outer loop
      vertex 0 12 3.5
      vertex 1 11 3.5
      vertex 16 12 3.5
    endloop
  endfacet
  facet normal 0 0 1
    outer loop
      vertex 0 7.10585 3.5
      vertex 1 11 3.5
      vertex 0 12 3.5
    endloop
  endfacet
  facet normal 0 0 1
    outer loop
      vertex 1 11 3.5
      vertex 0 7.10585 3.5
      vertex 1 7.10585 3.5
    endloop
  endfacet
  facet normal 0 0 1
    outer loop
      vertex 16 7.10585 3.5
      vertex 15 11 3.5
      vertex 15 7.10585 3.5
    endloop
  endfacet
  facet normal 1 0 0
    outer loop
      vertex 1 4.89415 3.5
      vertex 1 1 3.5
      vertex 1 4.76363 3.09828
    endloop
  endfacet
  facet normal 1 0 0
    outer loop
      vertex 1 11 3.5
      vertex 1 7.23637 3.09828
      vertex 1 11 1
    endloop
  endfacet
  facet normal 1 0 -0
    outer loop
      vertex 1 7.23637 3.09828
      vertex 1 11 3.5
      vertex 1 7.10585 3.5
    endloop
  endfacet
  facet normal 1 -0 0
    outer loop
      vertex 1 6 2.2
      vertex 1 11 1
      vertex 1 7.23637 3.09828
    endloop
  endfacet
  facet normal 1 0 0
    outer loop
      vertex 1 1 1
      vertex 1 4.76363 3.09828
      vertex 1 1 3.5
    endloop
  endfacet
  facet normal 1 0 0
    outer loop
      vertex 1 6 2.2
      vertex 1 1 1
      vertex 1 11 1
    endloop
  endfacet
  facet normal 1 0 0
    outer loop
      vertex 1 4.76363 3.09828
      vertex 1 1 1
      vertex 1 6 2.2
    endloop
  endfacet
  facet normal -1 0 0
    outer loop
      vertex 15 11 1
      vertex 15 7.23637 3.09828
      vertex 15 11 3.5
    endloop
  endfacet
  facet normal -1 0 0
    outer loop
      vertex 15 11 1
      vertex 15 6 2.2
      vertex 15 7.23637 3.09828
    endloop
  endfacet
  facet normal -1 -0 0
    outer loop
      vertex 15 6 2.2
      vertex 15 1 1
      vertex 15 4.76363 3.09828
    endloop
  endfacet
  facet normal -1 0 0
    outer loop
      vertex 15 1 1
      vertex 15 6 2.2
      vertex 15 11 1
    endloop
  endfacet
  facet normal -1 -0 0
    outer loop
      vertex 15 11 3.5
      vertex 15 7.23637 3.09828
      vertex 15 7.10585 3.5
    endloop
  endfacet
  facet normal -1 0 0
    outer loop
      vertex 15 1 3.5
      vertex 15 4.76363 3.09828
      vertex 15 1 1
    endloop
  endfacet
  facet normal -1 0 0
    outer loop
      vertex 15 4.76363 3.09828
      vertex 15 1 3.5
      vertex 15 4.89415 3.5
    endloop
  endfacet
  facet normal 0 -1 0
    outer loop
      vertex 1 11 1
      vertex 15 11 3.5
      vertex 1 11 3.5
    endloop
  endfacet
  facet normal 0 -1 -0
    outer loop
      vertex 15 11 3.5
      vertex 1 11 1
      vertex 15 11 1
    endloop
  endfacet
  facet normal 0 1 -0
    outer loop
      vertex 15 1 1
      vertex 1 1 3.5
      vertex 15 1 3.5
    endloop
  endfacet
  facet normal 0 1 0
    outer loop
      vertex 1 1 3.5
      vertex 15 1 1
      vertex 1 1 1
    endloop
  endfacet
  facet normal 0 -0.587785 0.809017
    outer loop
      vertex 0 7.23637 3.09828
      vertex 1 6 2.2
      vertex 1 7.23637 3.09828
    endloop
  endfacet
  facet normal 0 -0.587785 0.809017
    outer loop
      vertex 1 6 2.2
      vertex 0 7.23637 3.09828
      vertex 0 6 2.2
    endloop
  endfacet
  facet normal 0 -0.587785 0.809017
    outer loop
      vertex 15 7.23637 3.09828
      vertex 16 6 2.2
      vertex 16 7.23637 3.09828
    endloop
  endfacet
  facet normal 0 -0.587785 0.809017
    outer loop
      vertex 16 6 2.2
      vertex 15 7.23637 3.09828
      vertex 15 6 2.2
    endloop
  endfacet
  facet normal 0 -0.951057 -0.309017
    outer loop
      vertex 0 7.23637 3.09828
      vertex 1 7.10585 3.5
      vertex 0 7.10585 3.5
    endloop
  endfacet
  facet normal 0 -0.951057 -0.309017
    outer loop
      vertex 1 7.10585 3.5
      vertex 0 7.23637 3.09828
      vertex 1 7.23637 3.09828
    endloop
  endfacet
  facet normal 0 -0.951057 -0.309017
    outer loop
      vertex 15 7.23637 3.09828
      vertex 16 7.10585 3.5
      vertex 15 7.10585 3.5
    endloop
  endfacet
  facet normal 0 -0.951057 -0.309017
    outer loop
      vertex 16 7.10585 3.5
      vertex 15 7.23637 3.09828
      vertex 16 7.23637 3.09828
    endloop
  endfacet
  facet normal 0 0.951057 -0.309017
    outer loop
      vertex 1 4.76363 3.09828
      vertex 0 4.89415 3.5
      vertex 1 4.89415 3.5
    endloop
  endfacet
  facet normal 0 0.951057 -0.309017
    outer loop
      vertex 0 4.89415 3.5
      vertex 1 4.76363 3.09828
      vertex 0 4.76363 3.09828
    endloop
  endfacet
  facet normal 0 0.951057 -0.309017
    outer loop
      vertex 16 4.76363 3.09828
      vertex 15 4.89415 3.5
      vertex 16 4.89415 3.5
    endloop
  endfacet
  facet normal 0 0.951057 -0.309017
    outer loop
      vertex 15 4.89415 3.5
      vertex 16 4.76363 3.09828
      vertex 15 4.76363 3.09828
    endloop
  endfacet
  facet normal -0 0.587785 0.809017
    outer loop
      vertex 0 6 2.2
      vertex 1 4.76363 3.09828
      vertex 1 6 2.2
    endloop
  endfacet
  facet normal 0 0.587785 0.809017
    outer loop
      vertex 1 4.76363 3.09828
      vertex 0 6 2.2
      vertex 0 4.76363 3.09828
    endloop
  endfacet
  facet normal -0 0.587785 0.809017
    outer loop
      vertex 15 6 2.2
      vertex 16 4.76363 3.09828
      vertex 16 6 2.2
    endloop
  endfacet
  facet normal 0 0.587785 0.809017
    outer loop
      vertex 16 4.76363 3.09828
      vertex 15 6 2.2
      vertex 15 4.76363 3.09828
    endloop
  endfacet
endsolid OpenSCAD_Model
